<svg height="512" viewBox="0 0 56 45" width="512" xmlns="http://www.w3.org/2000/svg"><g id="Page-1" fill="none" fill-rule="evenodd"><g id="034---Cash" fill="rgb(0,0,0)" fill-rule="nonzero"><path id="Shape" d="m19 37.932c2.833-.358 5-2.207 5-4.432s-2.167-4.074-5-4.432z"/><path id="Shape" d="m21.018 10.351c.0501204-.2604455.2016525-.49031238.4212591-.63902976.2196066-.14871737.4892976-.20410236.7497409-.15397024.472.091.936.206 1.4.332-.3952014-1.62894466-.1567836-3.3471968.667-4.807.2-.349.446-.713.7-1.085 1.164-1.695 1.378-2.311.554-3.127-.7700092-.67697936-1.8196107-.94031088-2.818-.707-.6054366.18020284-1.1716017.47261401-1.669.862-.8592699.70128239-1.9114849 1.1246795-3.017 1.214-1.1086218-.08765678-2.1641913-.51114038-3.026-1.214-.5003405-.39139054-1.0704325-.68424139-1.68-.863-.9957217-.23098494-2.0417161.0326548-2.809.708-.825.816-.611 1.432.553 3.127.255.372.5.736.7 1.091.8219318 1.4579348 1.0592772 3.17368462.664 4.8.463-.126.927-.24 1.4-.331.3508348-.06788048.7112334.05656352.945437.32645515.2342036.26989165.3066312.64422795.19.98200005s-.4046022.5876644-.755437.6555448c-1.4454306.2816729-2.8495277.7446655-4.179 1.378-5.989 2.8-10.009 11.62-10.009 18.1 0 11.733 12.588 13 18 13 3.7787798.1224579 7.5371286-.6015368 11-2.119v-27c-2.0805027-1.6982353-4.551182-2.8516085-7.189-3.356-.2610727-.0500864-.4914584-.2020623-.6402561-.4223504-.1487977-.2202882-.2037601-.490757-.1527439-.7516496zm4.982 12.149c0 .5522847-.4477153 1-1 1s-1-.4477153-1-1c0-2.225-2.167-4.074-5-4.432v8.988c3.94.4 7 3.136 7 6.444s-3.06 6.042-7 6.444v1.056c0 .5522847-.4477153 1-1 1s-1-.4477153-1-1v-1.056c-3.94-.4-7-3.136-7-6.444 0-.5522847.4477153-1 1-1s1 .4477153 1 1c0 2.225 2.167 4.074 5 4.432v-8.988c-3.94-.4-7-3.136-7-6.444s3.06-6.042 7-6.444v-1.056c0-.5522847.4477153-1 1-1s1 .4477153 1 1v1.056c3.94.402 7 3.136 7 6.444z"/><path id="Shape" d="m43.5 41c-.867 0-1.723-.021-2.549-.062-.5522847-.0276142-.9776142-.4977153-.95-1.05s.4977153-.9776142 1.05-.95c.794.039 1.618.059 2.451.059 7.667 0 12.279-1.66 12.5-2.513v-3.524c-1.2052424.5786045-2.4816058.9955409-3.796 1.24-.0678442.0134087-.1368435.0201077-.206.02-.5110023-.0018268-.9384188-.3886227-.9910973-.8969057-.0526785-.5082831.2863306-.9745113.7860973-1.0810943 3.3-.693 4.158-1.559 4.207-1.753v-3.522c-2.987 1.549-8.677 2.033-12.502 2.033-.867 0-1.723-.021-2.549-.062-.2649656-.0126906-.5140321-.1301392-.6923876-.326499-.1783554-.1963597-.2713838-.4555393-.2586124-.720501.0317379-.5495089.4980228-.9721909 1.048-.95.794.039 1.618.059 2.451.059 7.664 0 12.275-1.658 12.5-2.512v-3.528c-1.2043158.5783007-2.4796472.9952295-3.793 1.24-.0678442.0134087-.1368435.0201077-.206.02-.5110023-.0018268-.9384188-.3886227-.9910973-.8969057-.0526785-.5082831.2863306-.9745113.7860973-1.0810943 3.3-.692 4.154-1.556 4.206-1.752v-3.523c-2.987 1.549-8.677 2.033-12.501 2.033-.867 0-1.723-.021-2.549-.062-.3572656-.0178633-.6778627-.2249685-.8410254-.5433013-.1631628-.3183327-.1441029-.6995305.05-1 .1941028-.3004694.5337598-.474562.8910254-.4566987.794.039 1.618.059 2.451.059 7.669 0 12.281-1.66 12.5-2.513-.221-.824-4.833-2.484-12.502-2.484s-12.271 1.657-12.5 2.51v.006c.068.208 1.129 1.205 5.171 1.909.5442766.0944407.9089406.6122234.8144999 1.1565-.0944406.5442766-.6122233.9089407-1.1564999.8145-1.6710415-.2391349-3.2980036-.7219339-4.829-1.433v3.529c.236.854 4.845 2.508 12.5 2.508 1.184 0 2.337-.04 3.429-.118.550904-.0392122 1.0292878.375596 1.0685.9265s-.375596 1.0292878-.9265 1.0685c-1.138.081-2.34.123-3.571.123-3.824 0-9.514-.484-12.5-2.033v3.524c.073.238 1.139 1.232 5.171 1.934.5106468.0894525.8682577.5543199.8237624 1.0708294-.0444952.5165095-.4763405.9133683-.9947624.9141706-.0576084-.0002282-.115113-.0049089-.172-.014-1.6706998-.2392301-3.2973183-.7220272-4.828-1.433v3.529c.236.854 4.845 2.508 12.5 2.508 1.184 0 2.337-.04 3.429-.118.5522847-.0392122 1.0317878.3767153 1.071.929s-.3767153 1.0317878-.929 1.071c-1.138.081-2.34.123-3.571.123-3.824 0-9.514-.484-12.5-2.033v3.524c.073.238 1.139 1.232 5.171 1.934.4988665.1003935.8427882.5594082.7990035 1.0663889-.0437847.5069808-.4613114.900234-.9700035.9136111-.0576084-.0002282-.115113-.0049089-.172-.014-1.6706998-.2392301-3.2973183-.7220272-4.828-1.433v3.537c.219.84 4.831 2.5 12.5 2.5s12.281-1.66 12.5-2.513v-3.52c-2.984 1.549-8.675 2.033-12.5 2.033z"/><path id="Shape" d="m12 22.5c0 2.225 2.167 4.074 5 4.432v-8.864c-2.833.358-5 2.207-5 4.432z"/></g></g></svg>