<svg height="512" viewBox="0 0 57 57" width="512" xmlns="http://www.w3.org/2000/svg"><g id="022---Targeting-Cash"><path id="Shape" d="m47.8 32.4 1.146 1.528c-.3839811-4.9050788-3.3133524-9.2490423-7.716956-11.4434706-4.4036035-2.1944284-9.6356736-1.9175199-13.783044.7294706l2.94 2.941c4.372322-2.2822534 9.7559094-1.0316974 12.6745291 2.9441724 2.9186196 3.9758697 2.4985317 9.486807-.989009 12.9743477s-8.998478 3.9076286-12.9743477.989009c-3.9758698-2.9186197-5.2264258-8.3022071-2.9441724-12.6745291l-2.941-2.94c-1.0599874 1.6470443-1.7586863 3.5001303-2.05 5.437l2.638 3.515c.3313708.4418278.2418278 1.0686292-.2 1.4s-1.0686292.2418278-1.4-.2l-1.146-1.528c.5349649 7.0964217 6.314495 12.659048 13.4261815 12.9223015 7.1116866.2632535 13.2866597-4.8568525 14.3448185-11.8943015l-2.625-3.5c-.3313708-.4418278-.2418278-1.0686292.2-1.4s1.0686292-.2418278 1.4.2z"/><path id="Shape" d="m36 36.162v2.676c1.77-.575 1.772-2.101 0-2.676z"/><path id="Shape" d="m31 10v1.345c2.646832-.4582998 5.3525971-.4599909 8-.005v-1.34c0-1.1045695-.8954305-2-2-2h-4c-1.1045695 0-2 .8954305-2 2z"/><path id="Shape" d="m15.491 15.18c-.14.226-.085.171-.311.312-.2104646.1704842-.4499697.3015853-.707.387l13.234 13.234c.2851823.2843185.7130814.3698365 1.0856374.2169706s.6170691-.5142858.6203626-.9169706c-.0005056-.2644503-.1088502-.5172543-.3-.7l-13.234-13.24c-.0849588.2574333-.2164735.4970748-.388.707z"/><path id="Shape" d="m34 31.162c-1.77.575-1.772 2.1 0 2.676z"/><path id="Shape" d="m27.9 31.359c-1.7987701 3.5006257-.7811696 7.7897357 2.3984367 10.1092311 3.1796062 2.3194953 7.5745939 1.9788218 10.3587798-.8029515 2.784186-2.7817733 3.1286695-7.176464.8119315-10.3580799-2.316738-3.1816158-6.6049642-4.2029343-10.107148-2.4071997.1664645.9594148-.1443666 1.9398231-.8332095 2.6280691-.688843.688246-1.6695203.998227-2.6287905.8309309zm2.77 1.141c.1601068-1.7870364 1.5617557-3.211306 3.346-3.4.0331679-.5207463.4651985-.9261351.987-.9261351s.9538321.4053888.987.9261351c3.553.674 4.174 4.4 2.346 4.4-.5522847 0-1-.4477153-1-1 0-.571-.561-1.087-1.333-1.338v2.938c1.7798905.1929881 3.17547 1.6166215 3.333 3.4-.1601068 1.7870364-1.5617557 3.211306-3.346 3.4-.0331679.5207463-.4651985.9261351-.987.9261351s-.9538321-.4053888-.987-.9261351c-3.553-.674-4.174-4.4-2.346-4.4.5522847 0 1 .4477153 1 1 0 .571.561 1.087 1.333 1.338v-2.938c-1.7810629-.1916522-3.1782238-1.6156171-3.336-3.4z"/><path id="Shape" d="m8.248 1.061c-.04557038-.07833056-.12776138-.1281996-.21828393-.13244285-.09052255-.00424324-.17701812.03771861-.22971607.11144285-.481 4.9-.452 4.733-.5 4.843l6.916 6.917c.856-4.277.833-3.973.727-4.105z"/><path id="Shape" d="m1.1 7.467c8.1 7.947 7.621 7.567 7.81 7.533l3.892-.779-6.919-6.921c-.214.1-.179.07-4.887-.279-.03363851.03677005-.05556984.08272141-.063.132-.033.17.067.216.167.314z"/><path id="Shape" d="m21.722 17.489 4.292 4.291c4.7585394-3.2276083 10.8835541-3.6519847 16.0417428-1.1114646s8.5553153 7.6547583 8.8972572 13.3944646l1.247-1.663c.3313708-.4418278.9581722-.5313708 1.4-.2s.5313708.9581722.2 1.4c-3.86 5.145-2.811 3.759-3.035 4.029-1.327817 8.0340718-8.4848303 13.7845333-16.6163275 13.3507577-8.1314972-.4337755-14.6361157-6.9130182-15.1016725-15.0427577l-1.247 1.663c-.3313708.4418278-.9581722.5313708-1.4.2s-.5313708-.9581722-.2-1.4c3.04-4.052 2.911-3.929 3.011-4.009.3788273-2.2881985 1.2558413-4.4652006 2.569-6.377l-4.291-4.292c-10.958 14.456-.625 35.278 17.511 35.278 12.1445532-.0137772 21.9862228-9.8554468 22-22 0-18.139-20.825-28.467-35.278-17.511z"/></g></svg>